<svg id="Calque_1" data-name="Calque 1" xmlns="http://www.w3.org/2000/svg" viewBox="0 0 1280 151.71"><defs><style>.cls-1{fill:#f2ad94;}.cls-2{fill:#d96459;}</style></defs><title>logo_teamgen</title><path class="cls-1" d="M172.15,46.29q-31.47-1-61.12-1.2V149.71H60.92V45.09Q31.07,45.3,0,46.29V4.21H172.15Z"/><path class="cls-1" d="M235.48,113q76.16-.39,110.42-2.2a127.22,127.22,0,0,0-1.7,16.93q-.3,8.71-.3,22H188.18q1.6-38.88,1.61-72.75T188.18,4.21H343.9V40.48H235.48V59.72q9.61.21,28.46.2,31.86,0,65.93-1.2V93.19Q295.81,92,263.94,92q-18.84,0-28.46.2Z"/><path class="cls-1" d="M476.37,149.71q-3.81-11.43-10.22-28.66H402.22l-10,28.66H341.89L398,4.21h73.75l56.51,145.5ZM454.72,89.78q-7.62-21-15.63-42.08l-4.81-13q-7,18.24-20.64,55.11Z"/><path class="cls-1" d="M726.28,4.21l15.63,145.5H690L686.8,45.89l-20,103.82H614.25l-20.44-103-3,103H538.9L554.53,4.21h68.14L640.1,99,655.33,4.21Z"/><path class="cls-2" d="M836.5,66.74h85.58v83H886.8l-4.2-35.48q-6,19-21.45,28.26t-37.68,9.22q-20.24,0-36-9a63,63,0,0,1-24.65-25.85q-8.91-16.83-8.92-39.28,0-35.88,21.45-56.72T842.11,0Q868,0,887.71,8.42a84.18,84.18,0,0,1,33.57,26.05q-9,4.62-35.28,18.44l-5,2.81A50.62,50.62,0,0,0,862.76,44a62.19,62.19,0,0,0-22-3.91q-19.25,0-28.66,10.12t-9.42,25q0,16,10.12,25.86t31,9.82a59.5,59.5,0,0,0,17.53-2.61,31.19,31.19,0,0,0,14.33-9H836.5Z"/><path class="cls-2" d="M985.4,113q76.16-.39,110.43-2.2a125.57,125.57,0,0,0-1.71,16.93q-.3,8.71-.3,22H938.11q1.59-38.88,1.6-72.75t-1.6-72.75h155.71V40.48H985.4V59.72q9.61.21,28.46.2,31.86,0,65.93-1.2V93.19q-34.07-1.2-65.93-1.2-18.84,0-28.46.2Z"/><path class="cls-2" d="M1280,4.41q-1.41,33.87-1.4,72.55,0,38.88,1.4,72.75h-71.74l-48.5-109.43,3.61,109.43h-51.51q1.61-38.88,1.6-72.75,0-33.67-1.6-72.55h73.75l48.7,112.43L1230.9,4.41Z"/></svg>